<?xml version="1.0" encoding="utf-8"?>
<!-- Generator: Adobe Illustrator 26.2.1, SVG Export Plug-In . SVG Version: 6.00 Build 0)  -->
<svg version="1.1" xmlns="http://www.w3.org/2000/svg" xmlns:xlink="http://www.w3.org/1999/xlink" x="0px" y="0px"
	 viewBox="0 0 48 48" style="enable-background:new 0 0 48 48;" xml:space="preserve">
<g id="Layer_1">
</g>
<g id="Layer_2">
	<path d="M43,10H5c-0.55,0-1-0.45-1-1v0c0-0.55,0.45-1,1-1h38c0.55,0,1,0.45,1,1v0C44,9.55,43.55,10,43,10z"/>
	<path d="M43,25H5c-0.55,0-1-0.45-1-1v0c0-0.55,0.45-1,1-1h38c0.55,0,1,0.45,1,1v0C44,24.55,43.55,25,43,25z"/>
	<path d="M43,40H5c-0.55,0-1-0.45-1-1l0,0c0-0.55,0.45-1,1-1h38c0.55,0,1,0.45,1,1l0,0C44,39.55,43.55,40,43,40z"/>
</g>
</svg>
